<svg width="16" height="16" viewBox="0 0 16 16" fill="none" xmlns="http://www.w3.org/2000/svg">
<path d="M14 6C12.967 6 11.9946 6 11 6C11 5.33088 11 4.67876 11 4C12.5004 4.22399 13.2912 5.03431 14 6Z" fill="#14C1C2"/>
<path d="M2.31078 9.20495C2.00488 9.20495 1.74119 9.20972 1.4775 9.20389C1.17818 9.197 0.998367 9.04275 1.00001 8.80634C1.00166 8.57046 1.18147 8.41462 1.48189 8.41356C2.61175 8.40932 3.74161 8.41197 4.87147 8.41091C4.96247 8.41091 5.05457 8.41303 5.14393 8.40137C5.37801 8.37063 5.5052 8.23175 5.50246 8.00806C5.49972 7.79709 5.37637 7.66352 5.15544 7.63171C5.06608 7.61899 4.97398 7.62058 4.88298 7.62058C3.79862 7.62005 2.71426 7.62005 1.63045 7.61952C1.53945 7.61952 1.4468 7.62376 1.35799 7.60945C1.12884 7.57182 0.997818 7.43294 1.0044 7.20978C1.01043 6.99987 1.14035 6.87001 1.35744 6.83555C1.43748 6.82283 1.52081 6.82601 1.60304 6.82601C2.28666 6.82548 2.96973 6.82601 3.65335 6.82548C3.72626 6.82548 3.79972 6.82813 3.87208 6.8223C4.15002 6.80004 4.30078 6.64526 4.28817 6.39878C4.27721 6.17456 4.14564 6.0643 3.85838 6.06218C3.2389 6.05741 2.61942 6.06059 1.99995 6.06059C1.92703 6.06059 1.85248 6.06748 1.78176 6.05635C1.55425 6.02031 1.4172 5.88779 1.4172 5.66357C1.4172 5.43935 1.55315 5.29942 1.78231 5.27344C1.94348 5.25542 2.10849 5.26973 2.31188 5.26973C2.31188 4.98721 2.30749 4.71793 2.31297 4.44919C2.319 4.15553 2.46647 4.00128 2.7636 4.00128C5.19656 3.99863 7.62896 4.00075 10.0619 4.00181C10.0795 4.00181 10.097 4.00923 10.1463 4.01983C10.1507 4.10358 10.1595 4.19634 10.1595 4.28858C10.1606 4.91353 10.1595 5.53848 10.1606 6.16343C10.1611 6.67494 10.2587 6.77141 10.7784 6.77194C11.717 6.773 12.6555 6.76664 13.594 6.77406C14.4871 6.78148 14.9985 7.28505 14.9996 8.14058C14.9996 8.26355 14.9996 8.38706 14.9996 8.51004C14.9996 9.1 15.0007 9.68944 14.9991 10.2794C14.998 10.6504 14.8593 10.7814 14.4701 10.7883C14.4608 10.7883 14.4514 10.7899 14.4427 10.7883C14.0715 10.7268 13.8638 10.8365 13.6922 11.2065C13.4279 11.7763 12.8879 12.0307 12.2372 11.992C11.5733 11.9528 11.1095 11.612 10.87 11.0188C10.796 10.836 10.7115 10.7835 10.5202 10.7846C9.30868 10.792 8.09659 10.792 6.88504 10.7846C6.70084 10.7835 6.6208 10.8349 6.55666 11.0098C6.33409 11.6173 5.74586 12.0005 5.08637 12C4.42523 11.9995 3.85015 11.6199 3.621 11.0051C3.55686 10.8333 3.47408 10.7681 3.28988 10.7851C3.12706 10.7999 2.96205 10.7914 2.79814 10.7867C2.46154 10.7766 2.31681 10.6377 2.31352 10.3154C2.30804 9.95924 2.31078 9.59985 2.31078 9.20495ZM5.83248 10.5015C5.84125 10.1008 5.51836 9.76948 5.11049 9.76046C4.68891 9.75092 4.33806 10.078 4.33587 10.4814C4.33367 10.8789 4.65876 11.1975 5.07595 11.2065C5.48766 11.216 5.82426 10.9028 5.83248 10.5015ZM13.0826 10.4766C13.0771 10.0827 12.735 9.75675 12.3304 9.76099C11.9034 9.76577 11.5733 10.096 11.5848 10.5073C11.5964 10.9054 11.9319 11.2128 12.3485 11.207C12.7597 11.2017 13.088 10.8747 13.0826 10.4766Z" fill="#14C1C2"/>
</svg>
